<svg width="34" height="34" viewBox="0 0 34 34" fill="none" xmlns="http://www.w3.org/2000/svg">
<path d="M24.0833 31.1666V28.3333H28.3333V24.0833H31.1666V29.0416C31.1666 29.6083 30.8833 30.0333 30.4583 30.4583C30.0333 30.8833 29.4666 31.1666 29.0416 31.1666H24.0833ZM9.91665 31.1666H4.95831C4.39165 31.1666 3.96665 30.8833 3.54165 30.4583C3.11665 30.0333 2.83331 29.4666 2.83331 29.0416V24.0833H5.66665V28.3333H9.91665V31.1666ZM24.0833 2.83331H29.0416C29.6083 2.83331 30.0333 3.11665 30.4583 3.54165C30.8833 3.96665 31.1666 4.39165 31.1666 4.95831V9.91665H28.3333V5.66665H24.0833V2.83331ZM9.91665 2.83331V5.66665H5.66665V9.91665H2.83331V4.95831C2.83331 4.39165 3.11665 3.96665 3.54165 3.54165C3.96665 3.11665 4.39165 2.83331 4.95831 2.83331H9.91665ZM26.9166 15.5833H7.08331V18.4166H26.9166V15.5833Z" fill="#7F5283"/>
</svg>
