<svg width="110" height="23" viewBox="0 0 110 23" fill="none" xmlns="http://www.w3.org/2000/svg">
<rect width="110" height="23" rx="9" fill="#232946"/>
<path d="M19.47 15L19.04 13.4H16.75L16.32 15H14.95L17.1 8.09H18.73L20.87 15H19.47ZM17.01 12.4H18.77L17.89 9.1L17.01 12.4ZM25.8501 9.71L24.1301 15H22.6001L20.8501 9.71H22.2401L23.3701 13.97L24.5301 9.71H25.8501ZM30.3636 13.6C30.3636 13.8067 30.3936 13.96 30.4536 14.06C30.5203 14.1533 30.6236 14.2267 30.7636 14.28L30.4936 15.13C30.1936 15.1033 29.9469 15.03 29.7536 14.91C29.5669 14.79 29.4236 14.6067 29.3236 14.36C29.1436 14.6267 28.9169 14.8267 28.6436 14.96C28.3769 15.0867 28.0769 15.15 27.7436 15.15C27.2169 15.15 26.8003 15 26.4936 14.7C26.1869 14.4 26.0336 14.0067 26.0336 13.52C26.0336 12.9467 26.2403 12.51 26.6536 12.21C27.0736 11.9033 27.6703 11.75 28.4436 11.75H29.1036V11.45C29.1036 11.11 29.0236 10.8733 28.8636 10.74C28.7103 10.6 28.4603 10.53 28.1136 10.53C27.7269 10.53 27.2603 10.6233 26.7136 10.81L26.4136 9.94C27.0736 9.68667 27.7136 9.56 28.3336 9.56C29.6869 9.56 30.3636 10.1667 30.3636 11.38V13.6ZM28.0836 14.22C28.5169 14.22 28.8569 14.0033 29.1036 13.57V12.5H28.5736C27.7469 12.5 27.3336 12.8067 27.3336 13.42C27.3336 13.6733 27.3969 13.87 27.5236 14.01C27.6503 14.15 27.8369 14.22 28.0836 14.22ZM33.1926 9.71V15H31.9126V9.71H33.1926ZM32.5426 7.03C32.7826 7.03 32.9759 7.10667 33.1226 7.26C33.2759 7.40667 33.3526 7.59 33.3526 7.81C33.3526 8.03 33.2759 8.21333 33.1226 8.36C32.9759 8.50667 32.7826 8.58 32.5426 8.58C32.3092 8.58 32.1159 8.50667 31.9626 8.36C31.8159 8.21333 31.7426 8.03 31.7426 7.81C31.7426 7.59 31.8159 7.40667 31.9626 7.26C32.1159 7.10667 32.3092 7.03 32.5426 7.03ZM35.9848 15.15C35.5782 15.15 35.2582 15.0333 35.0248 14.8C34.7982 14.56 34.6848 14.2233 34.6848 13.79V7.59L35.9648 7.45V13.75C35.9648 13.9967 36.0648 14.12 36.2648 14.12C36.3648 14.12 36.4648 14.1033 36.5648 14.07L36.8348 14.97C36.5682 15.09 36.2848 15.15 35.9848 15.15ZM41.5452 13.6C41.5452 13.8067 41.5752 13.96 41.6352 14.06C41.7019 14.1533 41.8052 14.2267 41.9452 14.28L41.6752 15.13C41.3752 15.1033 41.1286 15.03 40.9352 14.91C40.7486 14.79 40.6052 14.6067 40.5052 14.36C40.3252 14.6267 40.0986 14.8267 39.8252 14.96C39.5586 15.0867 39.2586 15.15 38.9252 15.15C38.3986 15.15 37.9819 15 37.6752 14.7C37.3686 14.4 37.2152 14.0067 37.2152 13.52C37.2152 12.9467 37.4219 12.51 37.8352 12.21C38.2552 11.9033 38.8519 11.75 39.6252 11.75H40.2852V11.45C40.2852 11.11 40.2052 10.8733 40.0452 10.74C39.8919 10.6 39.6419 10.53 39.2952 10.53C38.9086 10.53 38.4419 10.6233 37.8952 10.81L37.5952 9.94C38.2552 9.68667 38.8952 9.56 39.5152 9.56C40.8686 9.56 41.5452 10.1667 41.5452 11.38V13.6ZM39.2652 14.22C39.6986 14.22 40.0386 14.0033 40.2852 13.57V12.5H39.7552C38.9286 12.5 38.5152 12.8067 38.5152 13.42C38.5152 13.6733 38.5786 13.87 38.7052 14.01C38.8319 14.15 39.0186 14.22 39.2652 14.22ZM45.8342 9.56C46.4476 9.56 46.9276 9.80667 47.2742 10.3C47.6209 10.7867 47.7942 11.47 47.7942 12.35C47.7942 12.8967 47.7076 13.3833 47.5342 13.81C47.3676 14.23 47.1276 14.56 46.8142 14.8C46.5009 15.0333 46.1309 15.15 45.7042 15.15C45.4176 15.15 45.1542 15.09 44.9142 14.97C44.6809 14.85 44.4776 14.68 44.3042 14.46L44.2242 15H43.0942V7.59L44.3742 7.45V10.31C44.5476 10.07 44.7576 9.88667 45.0042 9.76C45.2576 9.62667 45.5342 9.56 45.8342 9.56ZM45.3542 14.19C45.7009 14.19 45.9709 14.0433 46.1642 13.75C46.3576 13.45 46.4542 12.9833 46.4542 12.35C46.4542 11.6833 46.3642 11.2133 46.1842 10.94C46.0042 10.66 45.7509 10.52 45.4242 10.52C45.0176 10.52 44.6676 10.76 44.3742 11.24V13.58C44.4876 13.7733 44.6276 13.9233 44.7942 14.03C44.9676 14.1367 45.1542 14.19 45.3542 14.19ZM50.3313 9.71V15H49.0513V9.71H50.3313ZM49.6813 7.03C49.9213 7.03 50.1146 7.10667 50.2613 7.26C50.4146 7.40667 50.4913 7.59 50.4913 7.81C50.4913 8.03 50.4146 8.21333 50.2613 8.36C50.1146 8.50667 49.9213 8.58 49.6813 8.58C49.4479 8.58 49.2546 8.50667 49.1013 8.36C48.9546 8.21333 48.8813 8.03 48.8813 7.81C48.8813 7.59 48.9546 7.40667 49.1013 7.26C49.2546 7.10667 49.4479 7.03 49.6813 7.03ZM53.1235 15.15C52.7168 15.15 52.3968 15.0333 52.1635 14.8C51.9368 14.56 51.8235 14.2233 51.8235 13.79V7.59L53.1035 7.45V13.75C53.1035 13.9967 53.2035 14.12 53.4035 14.12C53.5035 14.12 53.6035 14.1033 53.7035 14.07L53.9735 14.97C53.7068 15.09 53.4235 15.15 53.1235 15.15ZM56.1027 9.71V15H54.8227V9.71H56.1027ZM55.4527 7.03C55.6927 7.03 55.8861 7.10667 56.0327 7.26C56.1861 7.40667 56.2627 7.59 56.2627 7.81C56.2627 8.03 56.1861 8.21333 56.0327 8.36C55.8861 8.50667 55.6927 8.58 55.4527 8.58C55.2194 8.58 55.0261 8.50667 54.8727 8.36C54.7261 8.21333 54.6527 8.03 54.6527 7.81C54.6527 7.59 54.7261 7.40667 54.8727 7.26C55.0261 7.10667 55.2194 7.03 55.4527 7.03ZM60.675 14.75C60.4883 14.8833 60.2783 14.9833 60.045 15.05C59.8183 15.1167 59.585 15.15 59.345 15.15C58.825 15.1433 58.4283 14.9967 58.155 14.71C57.8883 14.4167 57.755 13.9867 57.755 13.42V10.63H56.925V9.71H57.755V8.54L59.035 8.39V9.71H60.265L60.135 10.63H59.035V13.39C59.035 13.65 59.0783 13.8367 59.165 13.95C59.2583 14.0633 59.4017 14.12 59.595 14.12C59.7883 14.12 59.9983 14.0567 60.225 13.93L60.675 14.75ZM63.9062 15.02C63.6928 15.6733 63.3695 16.18 62.9362 16.54C62.5028 16.9067 61.9095 17.12 61.1562 17.18L61.0262 16.25C61.3728 16.1967 61.6495 16.12 61.8562 16.02C62.0695 15.9267 62.2395 15.8 62.3662 15.64C62.4928 15.48 62.6095 15.2667 62.7162 15H62.2762L60.5962 9.71H61.9562L63.1062 14.15L64.3062 9.71H65.6262L63.9062 15.02ZM71.0448 8.42C70.7914 8.42 70.6081 8.48 70.4948 8.6C70.3881 8.71333 70.3348 8.89667 70.3348 9.15V9.71H71.6048L71.4648 10.63H70.3348V15H69.0548V10.63H68.1948V9.71H69.0548V9.13C69.0548 8.63 69.2148 8.22667 69.5348 7.92C69.8614 7.60667 70.3214 7.45 70.9148 7.45C71.3814 7.45 71.8381 7.55333 72.2848 7.76L71.9148 8.62C71.6281 8.48667 71.3381 8.42 71.0448 8.42ZM74.4339 9.56C75.2139 9.56 75.8206 9.81 76.2539 10.31C76.6939 10.8033 76.9139 11.4833 76.9139 12.35C76.9139 12.9033 76.8139 13.3933 76.6139 13.82C76.4139 14.24 76.1272 14.5667 75.7539 14.8C75.3806 15.0333 74.9372 15.15 74.4239 15.15C73.6439 15.15 73.0339 14.9033 72.5939 14.41C72.1539 13.91 71.9339 13.2233 71.9339 12.35C71.9339 11.7967 72.0339 11.31 72.2339 10.89C72.4339 10.47 72.7206 10.1433 73.0939 9.91C73.4739 9.67667 73.9206 9.56 74.4339 9.56ZM74.4339 10.53C73.6672 10.53 73.2839 11.1367 73.2839 12.35C73.2839 12.9767 73.3772 13.44 73.5639 13.74C73.7572 14.0333 74.0439 14.18 74.4239 14.18C74.8039 14.18 75.0872 14.03 75.2739 13.73C75.4672 13.43 75.5639 12.97 75.5639 12.35C75.5639 11.73 75.4672 11.2733 75.2739 10.98C75.0872 10.68 74.8072 10.53 74.4339 10.53ZM80.7238 9.57C80.9171 9.57 81.0938 9.59333 81.2538 9.64L81.0338 10.88C80.8738 10.84 80.7171 10.82 80.5638 10.82C80.2504 10.82 80.0038 10.9333 79.8238 11.16C79.6438 11.38 79.5004 11.72 79.3938 12.18V15H78.1138V9.71H79.2238L79.3438 10.75C79.4704 10.37 79.6538 10.08 79.8938 9.88C80.1338 9.67333 80.4104 9.57 80.7238 9.57ZM88.2493 15L87.8193 13.4H85.5293L85.0993 15H83.7293L85.8793 8.09H87.5093L89.6493 15H88.2493ZM85.7893 12.4H87.5493L86.6693 9.1L85.7893 12.4ZM91.6294 15.15C91.2227 15.15 90.9027 15.0333 90.6694 14.8C90.4427 14.56 90.3294 14.2233 90.3294 13.79V7.59L91.6094 7.45V13.75C91.6094 13.9967 91.7094 14.12 91.9094 14.12C92.0094 14.12 92.1094 14.1033 92.2094 14.07L92.4794 14.97C92.2127 15.09 91.9294 15.15 91.6294 15.15ZM94.5786 15.15C94.1719 15.15 93.8519 15.0333 93.6186 14.8C93.3919 14.56 93.2786 14.2233 93.2786 13.79V7.59L94.5586 7.45V13.75C94.5586 13.9967 94.6586 14.12 94.8586 14.12C94.9586 14.12 95.0586 14.1033 95.1586 14.07L95.4286 14.97C95.1619 15.09 94.8786 15.15 94.5786 15.15Z" fill="white"/>
</svg>
