<svg width="12" height="12" viewBox="0 0 12 12" fill="none" xmlns="http://www.w3.org/2000/svg">
<path d="M10.55 4.43751L6.35001 8.65001C6.30001 8.70001 6.24585 8.73534 6.18751 8.75601C6.12918 8.77701 6.06668 8.78751 6.00001 8.78751C5.93335 8.78751 5.87085 8.77701 5.81251 8.75601C5.75418 8.73534 5.70001 8.70001 5.65001 8.65001L1.43751 4.43751C1.32085 4.32084 1.26251 4.17501 1.26251 4.00001C1.26251 3.82501 1.32501 3.67501 1.45001 3.55001C1.57501 3.42501 1.72085 3.36251 1.88751 3.36251C2.05418 3.36251 2.20001 3.42501 2.32501 3.55001L6.00001 7.22501L9.67501 3.55001C9.79168 3.43334 9.93535 3.37501 10.106 3.37501C10.277 3.37501 10.425 3.43751 10.55 3.56251C10.675 3.68751 10.7375 3.83334 10.7375 4.00001C10.7375 4.16667 10.675 4.31251 10.55 4.43751Z" fill="#232946"/>
</svg>
