<svg width="341" height="44" viewBox="0 0 341 44" fill="none" xmlns="http://www.w3.org/2000/svg">
<rect width="341" height="44" rx="9" fill="#7F5283"/>
<path d="M108.58 27.126C107.704 27.126 106.912 26.976 106.204 26.676C105.508 26.376 104.956 25.944 104.548 25.38C104.14 24.816 103.93 24.15 103.918 23.382H106.618C106.654 23.898 106.834 24.306 107.158 24.606C107.494 24.906 107.95 25.056 108.526 25.056C109.114 25.056 109.576 24.918 109.912 24.642C110.248 24.354 110.416 23.982 110.416 23.526C110.416 23.154 110.302 22.848 110.074 22.608C109.846 22.368 109.558 22.182 109.21 22.05C108.874 21.906 108.406 21.75 107.806 21.582C106.99 21.342 106.324 21.108 105.808 20.88C105.304 20.64 104.866 20.286 104.494 19.818C104.134 19.338 103.954 18.702 103.954 17.91C103.954 17.166 104.14 16.518 104.512 15.966C104.884 15.414 105.406 14.994 106.078 14.706C106.75 14.406 107.518 14.256 108.382 14.256C109.678 14.256 110.728 14.574 111.532 15.21C112.348 15.834 112.798 16.71 112.882 17.838H110.11C110.086 17.406 109.9 17.052 109.552 16.776C109.216 16.488 108.766 16.344 108.202 16.344C107.71 16.344 107.314 16.47 107.014 16.722C106.726 16.974 106.582 17.34 106.582 17.82C106.582 18.156 106.69 18.438 106.906 18.666C107.134 18.882 107.41 19.062 107.734 19.206C108.07 19.338 108.538 19.494 109.138 19.674C109.954 19.914 110.62 20.154 111.136 20.394C111.652 20.634 112.096 20.994 112.468 21.474C112.84 21.954 113.026 22.584 113.026 23.364C113.026 24.036 112.852 24.66 112.504 25.236C112.156 25.812 111.646 26.274 110.974 26.622C110.302 26.958 109.504 27.126 108.58 27.126ZM118.145 19.098V23.922C118.145 24.258 118.223 24.504 118.379 24.66C118.547 24.804 118.823 24.876 119.207 24.876H120.377V27H118.793C116.669 27 115.607 25.968 115.607 23.904V19.098H114.419V17.028H115.607V14.562H118.145V17.028H120.377V19.098H118.145ZM121.541 21.978C121.541 20.97 121.739 20.076 122.135 19.296C122.543 18.516 123.089 17.916 123.773 17.496C124.469 17.076 125.243 16.866 126.095 16.866C126.839 16.866 127.487 17.016 128.039 17.316C128.603 17.616 129.053 17.994 129.389 18.45V17.028H131.927V27H129.389V25.542C129.065 26.01 128.615 26.4 128.039 26.712C127.475 27.012 126.821 27.162 126.077 27.162C125.237 27.162 124.469 26.946 123.773 26.514C123.089 26.082 122.543 25.476 122.135 24.696C121.739 23.904 121.541 22.998 121.541 21.978ZM129.389 22.014C129.389 21.402 129.269 20.88 129.029 20.448C128.789 20.004 128.465 19.668 128.057 19.44C127.649 19.2 127.211 19.08 126.743 19.08C126.275 19.08 125.843 19.194 125.447 19.422C125.051 19.65 124.727 19.986 124.475 20.43C124.235 20.862 124.115 21.378 124.115 21.978C124.115 22.578 124.235 23.106 124.475 23.562C124.727 24.006 125.051 24.348 125.447 24.588C125.855 24.828 126.287 24.948 126.743 24.948C127.211 24.948 127.649 24.834 128.057 24.606C128.465 24.366 128.789 24.03 129.029 23.598C129.269 23.154 129.389 22.626 129.389 22.014ZM136.908 18.576C137.232 18.048 137.652 17.634 138.168 17.334C138.696 17.034 139.296 16.884 139.968 16.884V19.53H139.302C138.51 19.53 137.91 19.716 137.502 20.088C137.106 20.46 136.908 21.108 136.908 22.032V27H134.388V17.028H136.908V18.576ZM144.6 19.098V23.922C144.6 24.258 144.678 24.504 144.834 24.66C145.002 24.804 145.278 24.876 145.662 24.876H146.832V27H145.248C143.124 27 142.062 25.968 142.062 23.904V19.098H140.874V17.028H142.062V14.562H144.6V17.028H146.832V19.098H144.6ZM152.321 20.7C152.321 19.464 152.597 18.36 153.149 17.388C153.713 16.404 154.475 15.642 155.435 15.102C156.407 14.55 157.493 14.274 158.693 14.274C160.097 14.274 161.327 14.634 162.383 15.354C163.439 16.074 164.177 17.07 164.597 18.342H161.699C161.411 17.742 161.003 17.292 160.475 16.992C159.959 16.692 159.359 16.542 158.675 16.542C157.943 16.542 157.289 16.716 156.713 17.064C156.149 17.4 155.705 17.88 155.381 18.504C155.069 19.128 154.913 19.86 154.913 20.7C154.913 21.528 155.069 22.26 155.381 22.896C155.705 23.52 156.149 24.006 156.713 24.354C157.289 24.69 157.943 24.858 158.675 24.858C159.359 24.858 159.959 24.708 160.475 24.408C161.003 24.096 161.411 23.64 161.699 23.04H164.597C164.177 24.324 163.439 25.326 162.383 26.046C161.339 26.754 160.109 27.108 158.693 27.108C157.493 27.108 156.407 26.838 155.435 26.298C154.475 25.746 153.713 24.984 153.149 24.012C152.597 23.04 152.321 21.936 152.321 20.7ZM171.178 27.162C170.218 27.162 169.354 26.952 168.586 26.532C167.818 26.1 167.212 25.494 166.768 24.714C166.336 23.934 166.12 23.034 166.12 22.014C166.12 20.994 166.342 20.094 166.786 19.314C167.242 18.534 167.86 17.934 168.64 17.514C169.42 17.082 170.29 16.866 171.25 16.866C172.21 16.866 173.08 17.082 173.86 17.514C174.64 17.934 175.252 18.534 175.696 19.314C176.152 20.094 176.38 20.994 176.38 22.014C176.38 23.034 176.146 23.934 175.678 24.714C175.222 25.494 174.598 26.1 173.806 26.532C173.026 26.952 172.15 27.162 171.178 27.162ZM171.178 24.966C171.634 24.966 172.06 24.858 172.456 24.642C172.864 24.414 173.188 24.078 173.428 23.634C173.668 23.19 173.788 22.65 173.788 22.014C173.788 21.066 173.536 20.34 173.032 19.836C172.54 19.32 171.934 19.062 171.214 19.062C170.494 19.062 169.888 19.32 169.396 19.836C168.916 20.34 168.676 21.066 168.676 22.014C168.676 22.962 168.91 23.694 169.378 24.21C169.858 24.714 170.458 24.966 171.178 24.966ZM182.656 27.162C181.696 27.162 180.832 26.952 180.064 26.532C179.296 26.1 178.69 25.494 178.246 24.714C177.814 23.934 177.598 23.034 177.598 22.014C177.598 20.994 177.82 20.094 178.264 19.314C178.72 18.534 179.338 17.934 180.118 17.514C180.898 17.082 181.768 16.866 182.728 16.866C183.688 16.866 184.558 17.082 185.338 17.514C186.118 17.934 186.73 18.534 187.174 19.314C187.63 20.094 187.858 20.994 187.858 22.014C187.858 23.034 187.624 23.934 187.156 24.714C186.7 25.494 186.076 26.1 185.284 26.532C184.504 26.952 183.628 27.162 182.656 27.162ZM182.656 24.966C183.112 24.966 183.538 24.858 183.934 24.642C184.342 24.414 184.666 24.078 184.906 23.634C185.146 23.19 185.266 22.65 185.266 22.014C185.266 21.066 185.014 20.34 184.51 19.836C184.018 19.32 183.412 19.062 182.692 19.062C181.972 19.062 181.366 19.32 180.874 19.836C180.394 20.34 180.154 21.066 180.154 22.014C180.154 22.962 180.388 23.694 180.856 24.21C181.336 24.714 181.936 24.966 182.656 24.966ZM195.611 27L192.227 22.752V27H189.707V13.68H192.227V21.258L195.575 17.028H198.851L194.459 22.032L198.887 27H195.611ZM201.497 15.84C201.053 15.84 200.681 15.702 200.381 15.426C200.093 15.138 199.949 14.784 199.949 14.364C199.949 13.944 200.093 13.596 200.381 13.32C200.681 13.032 201.053 12.888 201.497 12.888C201.941 12.888 202.307 13.032 202.595 13.32C202.895 13.596 203.045 13.944 203.045 14.364C203.045 14.784 202.895 15.138 202.595 15.426C202.307 15.702 201.941 15.84 201.497 15.84ZM202.739 17.028V27H200.219V17.028H202.739ZM210.754 16.884C211.942 16.884 212.902 17.262 213.634 18.018C214.366 18.762 214.732 19.806 214.732 21.15V27H212.212V21.492C212.212 20.7 212.014 20.094 211.618 19.674C211.222 19.242 210.682 19.026 209.998 19.026C209.302 19.026 208.75 19.242 208.342 19.674C207.946 20.094 207.748 20.7 207.748 21.492V27H205.228V17.028H207.748V18.27C208.084 17.838 208.51 17.502 209.026 17.262C209.554 17.01 210.13 16.884 210.754 16.884ZM221.035 16.866C221.779 16.866 222.433 17.016 222.997 17.316C223.561 17.604 224.005 17.982 224.329 18.45V17.028H226.867V27.072C226.867 27.996 226.681 28.818 226.309 29.538C225.937 30.27 225.379 30.846 224.635 31.266C223.891 31.698 222.991 31.914 221.935 31.914C220.519 31.914 219.355 31.584 218.443 30.924C217.543 30.264 217.033 29.364 216.913 28.224H219.415C219.547 28.68 219.829 29.04 220.261 29.304C220.705 29.58 221.239 29.718 221.863 29.718C222.595 29.718 223.189 29.496 223.645 29.052C224.101 28.62 224.329 27.96 224.329 27.072V25.524C224.005 25.992 223.555 26.382 222.979 26.694C222.415 27.006 221.767 27.162 221.035 27.162C220.195 27.162 219.427 26.946 218.731 26.514C218.035 26.082 217.483 25.476 217.075 24.696C216.679 23.904 216.481 22.998 216.481 21.978C216.481 20.97 216.679 20.076 217.075 19.296C217.483 18.516 218.029 17.916 218.713 17.496C219.409 17.076 220.183 16.866 221.035 16.866ZM224.329 22.014C224.329 21.402 224.209 20.88 223.969 20.448C223.729 20.004 223.405 19.668 222.997 19.44C222.589 19.2 222.151 19.08 221.683 19.08C221.215 19.08 220.783 19.194 220.387 19.422C219.991 19.65 219.667 19.986 219.415 20.43C219.175 20.862 219.055 21.378 219.055 21.978C219.055 22.578 219.175 23.106 219.415 23.562C219.667 24.006 219.991 24.348 220.387 24.588C220.795 24.828 221.227 24.948 221.683 24.948C222.151 24.948 222.589 24.834 222.997 24.606C223.405 24.366 223.729 24.03 223.969 23.598C224.209 23.154 224.329 22.626 224.329 22.014Z" fill="white"/>
</svg>
