<svg width="18" height="18" viewBox="0 0 18 18" fill="none" xmlns="http://www.w3.org/2000/svg">
<circle cx="9" cy="9" r="8.5" fill="#232946" stroke="#42597A"/>
<path d="M5.17537 4.48217L4.18335 5.48675V5.98807C4.18335 6.43455 4.18727 6.50505 4.22256 6.61471C4.29314 6.84578 4.49311 7.04552 4.73033 7.12385C4.91266 7.18456 5.14596 7.17085 5.32045 7.09056C5.55179 6.98286 5.72235 6.75962 5.7694 6.50505C5.78117 6.44238 5.79097 6.18389 5.79097 5.93128V5.47305L5.97526 5.1656C6.07524 4.99719 6.28894 4.63883 6.44774 4.37055C6.6085 4.10031 6.79083 3.79482 6.85357 3.69104C6.9163 3.58529 6.96728 3.49521 6.96728 3.48934C6.96728 3.48346 6.78691 3.47954 6.56733 3.47954H6.16739L5.17537 4.48217Z" fill="#FFFCFC"/>
<path d="M7.46319 3.50304C7.45143 3.51674 7.20637 3.92406 6.91817 4.40971C6.62998 4.8934 6.36923 5.33204 6.33786 5.38492L6.28101 5.47695V5.9861C6.28101 6.45021 6.28493 6.507 6.32218 6.61666C6.39472 6.83207 6.53783 6.99264 6.75153 7.09839C6.84955 7.14539 6.88092 7.15126 7.07501 7.15126C7.25734 7.15126 7.30439 7.14539 7.38869 7.10622C7.54161 7.03572 7.67689 6.92214 7.74943 6.80073C7.87294 6.59512 7.8749 6.57749 7.88863 5.94694L7.90039 5.36925L8.08076 4.45866C8.18074 3.95735 8.267 3.53241 8.27289 3.51283C8.28269 3.48149 8.25524 3.47954 7.88274 3.47954C7.58475 3.47954 7.47692 3.48541 7.46319 3.50304Z" fill="#FFFCFC"/>
<path d="M8.77101 3.49138C8.77101 3.49725 8.68279 3.94373 8.57496 4.48225L8.37891 5.46334V5.9764C8.37891 6.43659 8.38283 6.50513 8.41812 6.61479C8.49262 6.84978 8.68475 7.04365 8.92001 7.12198C9.11214 7.1866 9.34544 7.17289 9.51992 7.08673C9.7493 6.97511 9.91987 6.75187 9.96496 6.50709C9.97672 6.44246 9.98653 6.19181 9.98653 5.94898L9.98457 5.50642L9.78263 4.49792L9.5807 3.48942L9.17487 3.48354C8.95334 3.48158 8.77101 3.48354 8.77101 3.49138Z" fill="#FFFCFC"/>
<path d="M10.0845 3.50304C10.0845 3.51674 10.1727 3.97302 10.2805 4.51937L10.4766 5.51024V5.99981C10.4766 6.52658 10.4883 6.6147 10.5883 6.78311C10.653 6.89473 10.8059 7.02985 10.9432 7.09643C11.0451 7.14734 11.0745 7.15126 11.2706 7.15126C11.4745 7.15126 11.4941 7.14734 11.6137 7.0886C11.8509 6.9711 12.0234 6.7459 12.0626 6.49525C12.0744 6.42475 12.0842 6.17409 12.0842 5.93714V5.50633L11.9999 5.35946C11.9528 5.27917 11.7489 4.93452 11.5451 4.59574C11.3431 4.25696 11.1098 3.86727 11.0275 3.72823L10.8804 3.47954H10.4825C10.1805 3.47954 10.0845 3.48541 10.0845 3.50304Z" fill="#FFFCFC"/>
<path d="M11.4137 3.5422C11.4353 3.57745 11.6921 4.01218 11.9862 4.50762C12.2803 5.00306 12.5293 5.42017 12.543 5.43583C12.5567 5.45346 12.5685 5.64732 12.5743 6.01352C12.5841 6.53049 12.5881 6.56966 12.6292 6.67736C12.6939 6.83598 12.8567 7.00635 13.0233 7.0886C13.1449 7.14734 13.1645 7.15126 13.3684 7.15126C13.5722 7.15126 13.5919 7.14734 13.7134 7.0886C13.9487 6.97306 14.1212 6.74003 14.1624 6.48154C14.1741 6.41887 14.182 6.17018 14.182 5.92735V5.48675L13.1782 4.48412L12.1724 3.47954H11.7745H11.3745L11.4137 3.5422Z" fill="#FFFCFC"/>
<path d="M4.88718 7.7663L4.83032 7.82309V10.6077V13.3924L4.88718 13.4491L4.94403 13.5059H7.79266H10.6413L10.5236 13.3826C10.157 13.0066 9.9551 12.6286 9.84139 12.1097L9.82963 12.0568H7.73188H5.63413V10.2846V8.51239L7.34566 8.51043C8.28474 8.50847 9.07679 8.50847 9.10424 8.50847C9.13169 8.50652 9.95902 8.50847 10.9432 8.51043L12.7312 8.51239V8.83354V9.1547L12.8743 9.18799C13.0566 9.23303 13.2605 9.30548 13.4017 9.37598C13.4644 9.40731 13.5193 9.43277 13.5252 9.43277C13.5311 9.43277 13.535 9.08028 13.535 8.64751C13.535 7.79371 13.533 7.78196 13.4232 7.73105C13.3899 7.71538 12.1509 7.70951 9.16109 7.70951H4.94403L4.88718 7.7663Z" fill="#FFFDFD"/>
<path d="M11.9196 9.75775C11.5451 9.84 11.2432 10.0025 10.9746 10.2649C10.6609 10.5724 10.4864 10.9053 10.4178 11.3381C10.3845 11.5398 10.4021 11.904 10.4551 12.1018C10.6001 12.652 10.9844 13.1064 11.5079 13.3531C11.7431 13.4628 11.9333 13.5078 12.2215 13.5196C12.7293 13.5391 13.1645 13.3884 13.5507 13.0554C13.7448 12.889 13.8879 12.701 14.0075 12.4543C14.1349 12.1938 14.182 12.0058 14.1957 11.7199C14.2134 11.3635 14.1546 11.0815 14.0036 10.776C13.7644 10.2963 13.3488 9.95162 12.8194 9.793C12.6704 9.74796 12.5979 9.74013 12.3489 9.73425C12.1352 9.72838 12.0176 9.73621 11.9196 9.75775ZM13.2076 10.9777C13.2802 11.0522 13.339 11.1246 13.339 11.1383C13.339 11.1814 12.0999 12.4092 12.0568 12.4092C12.0117 12.4092 11.2608 11.6729 11.2608 11.6298C11.2608 11.5868 11.5177 11.3322 11.5608 11.3322C11.5843 11.3322 11.6882 11.4183 11.8196 11.5476C11.9392 11.6651 12.045 11.763 12.0568 11.763C12.0666 11.763 12.2823 11.5554 12.5352 11.3028C12.843 10.9954 13.0096 10.8426 13.0371 10.8426C13.0625 10.8426 13.1292 10.8955 13.2076 10.9777Z" fill="white"/>
</svg>
