<svg width="32" height="32" viewBox="0 0 32 32" fill="none" xmlns="http://www.w3.org/2000/svg">
<path d="M2.66669 16.0001L9.33335 21.3334V17.3334H21.3334V14.6667H9.33335V10.6667L2.66669 16.0001Z" fill="white"/>
<path d="M17.3346 3.99858C15.758 3.99421 14.1962 4.30273 12.7396 4.90627C11.2831 5.5098 9.96078 6.39636 8.8493 7.51458L10.7346 9.39991C12.4973 7.63725 14.8413 6.66525 17.3346 6.66525C19.828 6.66525 22.172 7.63725 23.9346 9.39991C25.6973 11.1626 26.6693 13.5066 26.6693 15.9999C26.6693 18.4932 25.6973 20.8372 23.9346 22.5999C22.172 24.3626 19.828 25.3346 17.3346 25.3346C14.8413 25.3346 12.4973 24.3626 10.7346 22.5999L8.8493 24.4852C11.1146 26.7519 14.128 28.0012 17.3346 28.0012C20.5413 28.0012 23.5546 26.7519 25.82 24.4852C28.0866 22.2199 29.336 19.2066 29.336 15.9999C29.336 12.7932 28.0866 9.77991 25.82 7.51458C24.7085 6.39636 23.3862 5.5098 21.9296 4.90627C20.4731 4.30273 18.9113 3.99421 17.3346 3.99858Z" fill="white"/>
</svg>
